<mxfile host="app.diagrams.net" modified="2022-04-22T12:15:08.709Z" agent="5.0 (Macintosh; Intel Mac OS X 10_15_7) AppleWebKit/537.36 (KHTML, like Gecko) Chrome/100.0.4896.127 Safari/537.36" etag="wKj6_O0sYIBVqbbmdqVw" version="17.4.5" type="github">
  <diagram id="9qD54te7m0o0qyoh3f8o" name="Page-1">
    <mxGraphModel dx="757" dy="444" grid="1" gridSize="10" guides="1" tooltips="1" connect="1" arrows="1" fold="1" page="1" pageScale="1" pageWidth="827" pageHeight="1169" math="0" shadow="0">
      <root>
        <mxCell id="0" />
        <mxCell id="1" parent="0" />
        <mxCell id="6MyPNZ4l9kwuH-DkE7VE-3" style="edgeStyle=orthogonalEdgeStyle;rounded=0;orthogonalLoop=1;jettySize=auto;html=1;exitX=1;exitY=0.5;exitDx=0;exitDy=0;startArrow=none;fontSize=14;" edge="1" parent="1" source="6MyPNZ4l9kwuH-DkE7VE-4" target="6MyPNZ4l9kwuH-DkE7VE-2">
          <mxGeometry relative="1" as="geometry" />
        </mxCell>
        <mxCell id="6MyPNZ4l9kwuH-DkE7VE-1" value="禁用" style="rounded=1;whiteSpace=wrap;html=1;fontSize=14;" vertex="1" parent="1">
          <mxGeometry x="160" y="160" width="120" height="60" as="geometry" />
        </mxCell>
        <mxCell id="6MyPNZ4l9kwuH-DkE7VE-7" style="edgeStyle=orthogonalEdgeStyle;rounded=0;orthogonalLoop=1;jettySize=auto;html=1;exitX=1;exitY=0.5;exitDx=0;exitDy=0;entryX=0;entryY=0.5;entryDx=0;entryDy=0;fontSize=14;" edge="1" parent="1" source="6MyPNZ4l9kwuH-DkE7VE-2" target="6MyPNZ4l9kwuH-DkE7VE-5">
          <mxGeometry relative="1" as="geometry" />
        </mxCell>
        <mxCell id="6MyPNZ4l9kwuH-DkE7VE-8" value="发布" style="edgeLabel;html=1;align=center;verticalAlign=middle;resizable=0;points=[];fontSize=14;" vertex="1" connectable="0" parent="6MyPNZ4l9kwuH-DkE7VE-7">
          <mxGeometry x="0.1667" y="1" relative="1" as="geometry">
            <mxPoint as="offset" />
          </mxGeometry>
        </mxCell>
        <mxCell id="6MyPNZ4l9kwuH-DkE7VE-10" style="edgeStyle=orthogonalEdgeStyle;rounded=0;orthogonalLoop=1;jettySize=auto;html=1;exitX=0.5;exitY=0;exitDx=0;exitDy=0;entryX=0.5;entryY=0;entryDx=0;entryDy=0;fontSize=14;" edge="1" parent="1" source="6MyPNZ4l9kwuH-DkE7VE-2" target="6MyPNZ4l9kwuH-DkE7VE-1">
          <mxGeometry relative="1" as="geometry" />
        </mxCell>
        <mxCell id="6MyPNZ4l9kwuH-DkE7VE-11" value="禁用" style="edgeLabel;html=1;align=center;verticalAlign=middle;resizable=0;points=[];fontSize=14;" vertex="1" connectable="0" parent="6MyPNZ4l9kwuH-DkE7VE-10">
          <mxGeometry x="-0.0748" y="-5" relative="1" as="geometry">
            <mxPoint as="offset" />
          </mxGeometry>
        </mxCell>
        <mxCell id="6MyPNZ4l9kwuH-DkE7VE-2" value="正常" style="rounded=1;whiteSpace=wrap;html=1;fontSize=14;" vertex="1" parent="1">
          <mxGeometry x="400" y="160" width="120" height="60" as="geometry" />
        </mxCell>
        <mxCell id="6MyPNZ4l9kwuH-DkE7VE-5" value="已发布" style="rounded=1;whiteSpace=wrap;html=1;fontSize=14;" vertex="1" parent="1">
          <mxGeometry x="640" y="160" width="120" height="60" as="geometry" />
        </mxCell>
        <mxCell id="6MyPNZ4l9kwuH-DkE7VE-4" value="启用" style="text;html=1;align=center;verticalAlign=middle;resizable=0;points=[];autosize=1;strokeColor=none;fillColor=none;fontSize=14;" vertex="1" parent="1">
          <mxGeometry x="310" y="180" width="40" height="20" as="geometry" />
        </mxCell>
        <mxCell id="6MyPNZ4l9kwuH-DkE7VE-9" value="" style="edgeStyle=orthogonalEdgeStyle;rounded=0;orthogonalLoop=1;jettySize=auto;html=1;exitX=1;exitY=0.5;exitDx=0;exitDy=0;endArrow=none;fontSize=14;" edge="1" parent="1" source="6MyPNZ4l9kwuH-DkE7VE-1" target="6MyPNZ4l9kwuH-DkE7VE-4">
          <mxGeometry relative="1" as="geometry">
            <mxPoint x="280" y="190" as="sourcePoint" />
            <mxPoint x="400" y="190" as="targetPoint" />
          </mxGeometry>
        </mxCell>
      </root>
    </mxGraphModel>
  </diagram>
</mxfile>
